PathFileType	4	(X/Y/Z)	C:\Users\Biomechanik\SynologyDrive\AlexP\Athlete_03\Athlete_3_25_03_31\Walking_05\marker_experimental.trc
DataRate	CameraRate	NumFrames	NumMarkers	Units	OrigDataRate	OrigDataStartFrame	OrigNumFrames
200.000000	200.000000	4	53	mm	200.000000	299	342
Frame#	Time	GLAB			RFHD			LFHD			C7			T6			SPINMOL			SPINM2			SPINM3			T12			BELTOL			BELT2			BELT3			SACROL			SACR2			SACR3			LTHOL			LTH2			LTH3			LSHAOL			LSHA2			LSHA3			LHEE			LTOE			LM5			RTHOL			RTH2			RTH3			RSHAOL			RSHA2			RSHA3			RHEE			RTOE			RM5			STRN			XIPH			LACR			LUAOL			LUA2			LUA3			LLAOL			LLA2			LLA3			LWRR			LWRU			RACR			RUAOL			RUA2			RUA3			RLAOL			RLA2			RLA3			RWRR			RWRU			
		X1	Y1	Z1	X2	Y2	Z2	X3	Y3	Z3	X4	Y4	Z4	X5	Y5	Z5	X6	Y6	Z6	X7	Y7	Z7	X8	Y8	Z8	X9	Y9	Z9	X10	Y10	Z10	X11	Y11	Z11	X12	Y12	Z12	X13	Y13	Z13	X14	Y14	Z14	X15	Y15	Z15	X16	Y16	Z16	X17	Y17	Z17	X18	Y18	Z18	X19	Y19	Z19	X20	Y20	Z20	X21	Y21	Z21	X22	Y22	Z22	X23	Y23	Z23	X24	Y24	Z24	X25	Y25	Z25	X26	Y26	Z26	X27	Y27	Z27	X28	Y28	Z28	X29	Y29	Z29	X30	Y30	Z30	X31	Y31	Z31	X32	Y32	Z32	X33	Y33	Z33	X34	Y34	Z34	X35	Y35	Z35	X36	Y36	Z36	X37	Y37	Z37	X38	Y38	Z38	X39	Y39	Z39	X40	Y40	Z40	X41	Y41	Z41	X42	Y42	Z42	X43	Y43	Z43	X44	Y44	Z44	X45	Y45	Z45	X46	Y46	Z46	X47	Y47	Z47	X48	Y48	Z48	X49	Y49	Z49	X50	Y50	Z50	X51	Y51	Z51	X52	Y52	Z52	X53	Y53	Z53	

300	1.495	1339.116821289062	1580.025512695312	278.8166809082034	1294.822875976562	1615.946899414062	343.6388244628909	1301.004150390625	1610.225219726562	205.2517089843752	1095.306518554688	1447.391479492188	271.2500305175784	1034.616455078125	1276.205078125	267.8767700195314	1027.7900390625	1236.047119140625	246.6722564697268	1023.24560546875	1228.26416015625	296.3267211914064	1033.93505859375	1171.69482421875	262.5398254394533	1057.70458984375	1105.762817382812	263.9382324218752	1021.576782226562	1071.44775390625	246.3165283203127	1020.802124023437	1068.770751953125	296.5217285156252	1017.945251464844	1008.928466796875	267.1942749023439	1038.474731445312	958.5256958007814	237.8327941894533	1036.587768554688	955.4261474609376	289.1484680175783	1025.022094726562	897.2149047851564	259.9344482421877	1242.282836914062	688.3781738281251	59.82452392578148	1220.2958984375	614.5737915039064	79.21206665039085	1266.1943359375	633.1243286132814	68.93764495849632	1266.26953125	377.9986572265626	71.03488922119163	1205.400390625	331.4511413574219	93.00425720214866	1253.308715820312	318.5617980957032	83.35315704345726	1147.45068359375	151.9351806640626	189.2816162109377	1349.990600585938	69.78491973876962	177.6827087402346	1294.983764648438	53.88940048217781	86.72251129150415	1103.296875	694.0906372070314	438.5124816894534	1156.583374023438	636.5769653320314	444.8663635253909	1110.043823242188	634.7359619140626	427.2311096191409	1063.6201171875	343.5373535156251	409.761199951172	1092.016723632812	270.2154846191407	407.5603332519534	1047.022216796875	285.5248718261719	393.157196044922	1003.9794921875	72.57460784912115	278.9024963378908	1215.458740234375	47.10038375854499	286.9118957519534	1162.851318359375	38.66451263427741	388.2648925781252	1264.015014648438	1347.359619140625	271.0914001464846	1277.724487304688	1203.876098632812	271.752868652344	1166.951049804688	1411.225708007812	97.10809326171896	1145.211303710938	1259.806274414062	-6.815164566039829	1126.706665039062	1199.517578125	-26.44015312194804	1174.836303710938	1200.841064453125	-9.413579940795683	1149.87744140625	998.9238281250001	-65.05164337158182	1112.707885742188	931.0984497070314	-48.18372726440409	1157.154541015625	938.0108642578126	-69.28121948242166	1180.01953125	836.8711547851564	-79.82865905761697	1227.719482421875	835.0111083984376	-16.41994285583474	1175.916870117188	1406.964477539062	439.3326721191409	1167.196411132812	1262.810791015625	545.296325683594	1196.131958007812	1203.99072265625	553.7810058593752	1147.096313476562	1204.943969726562	569.3673095703127	1225.17236328125	991.6520385742189	601.8482666015627	1297.402954101562	961.3026733398439	617.7684326171877	1257.052124023438	938.0375366210939	599.5139770507815	1322.236450195312	874.3783569335939	601.1099853515627	1359.054321289062	879.8710327148439	528.8913574218752	
301	1.5	1345.67529296875	1579.156005859375	278.0835876464846	1301.476806640625	1615.293701171875	342.8545532226565	1307.560668945312	1609.285278320312	204.4759979248049	1101.608154296875	1446.911499023438	270.8208618164065	1040.620361328125	1275.830078125	267.5128784179689	1033.822631835938	1235.670166015625	246.278762817383	1029.220703125	1227.8681640625	295.9159545898439	1039.859008789062	1171.285278320312	262.1336059570314	1063.540283203125	1105.331420898438	263.5293273925783	1027.560791015625	1071.1376953125	245.5460662841799	1026.544677734375	1068.4892578125	295.7538146972658	1023.681213378906	1008.635864257813	266.4280395507814	1044.315551757812	958.1989746093751	237.254837036133	1042.220336914062	955.1895751953126	288.5601806640627	1030.648559570312	896.9484252929689	259.4084777832033	1249.404296875	687.9998168945314	60.35773849487327	1227.748168945312	614.1155395507814	79.70855712890648	1273.625	632.8507080078126	69.7710876464846	1277.336669921875	375.2393493652344	71.79989624023462	1218.030639648438	326.7177734375001	93.73142242431663	1266.23046875	315.3474426269532	83.74211883544945	1166.0341796875	144.5155487060548	188.5953826904299	1371.422119140625	69.85831451416024	176.5206146240237	1316.94580078125	52.32077026367195	85.5041885375979	1107.002563476562	694.1796875000001	438.3970947265627	1159.840087890625	636.2531738281251	444.8517761230471	1113.307495117188	634.7965087890626	427.1075134277346	1065.093505859375	343.7626037597657	409.4540100097658	1093.085693359375	270.2792968750001	407.3114929199221	1048.19384765625	285.8191223144532	392.8734741210939	1004.257690429688	72.87831115722662	278.5339660644533	1215.504638671875	46.97091293334968	286.7984924316409	1162.878051757812	38.69529342651374	388.1899108886721	1270.204467773438	1346.702758789062	270.8189697265627	1283.711547851562	1203.20556640625	271.7524108886721	1173.179931640625	1410.515014648438	96.74078369140646	1150.540893554688	1259.082397460938	-7.07729673385599	1131.726440429688	1198.8642578125	-26.58064651489237	1179.934448242188	1200.000244140625	-9.76934909820535	1153.553833007812	998.2641601562501	-65.17314147949197	1115.927001953125	930.7186889648439	-48.15872955322245	1160.302734375	937.2750244140626	-69.50016021728494	1182.264282226562	835.9467773437501	-80.19403839111307	1230.2890625	833.6450805664064	-17.09842681884743	1182.071166992188	1406.675903320312	438.9358825683596	1173.717041015625	1262.813354492188	545.2207641601565	1202.928344726562	1204.165649414062	553.8549804687502	1153.896484375	1204.923217773438	569.4175415039065	1233.748657226562	992.1740722656251	602.0476074218752	1306.396484375	962.6448364257814	617.5316162109377	1266.218383789062	938.9710083007814	599.4926757812502	1332.122924804688	876.0034179687501	600.596862792969	1368.766357421875	882.2188720703126	528.3110351562502	
302	1.505	1352.230102539062	1578.232788085938	277.3405761718752	1308.118774414062	1614.579223632812	342.0581359863284	1314.111083984375	1608.2861328125	203.6885986328127	1107.918701171875	1446.358032226562	270.3663330078127	1046.6484375	1275.3818359375	267.1172180175783	1039.869995117188	1235.222534179688	245.8534545898439	1035.201904296875	1227.401489257812	295.471649169922	1045.795776367188	1170.803466796875	261.6953735351564	1069.385131835938	1104.827026367188	263.0935363769533	1033.555419921875	1070.747314453125	244.7691040039064	1032.308959960938	1068.137817382812	294.9813842773439	1029.433227539062	1008.267395019531	265.6677551269533	1050.162231445312	957.8124389648439	236.6836395263674	1047.868408203125	954.8958740234376	287.9809570312502	1036.257934570312	896.6296386718751	258.8935852050783	1256.373291015625	687.4503784179689	60.95572280883812	1235.023315429688	613.5251464843751	80.3605880737307	1280.874267578125	632.3988037109376	70.66748046875024	1288.369262695312	372.3983764648438	72.5259170532229	1230.705688476562	321.9339294433594	94.39160156250023	1279.153076171875	312.1114501953126	84.09279632568384	1184.807861328125	137.2713623046876	187.8518371582034	1392.767578125	70.18990325927743	175.2759704589846	1338.867065429688	51.07132339477548	84.20386505126977	1110.754638671875	694.2139282226564	438.2881774902346	1163.15283203125	635.8725585937501	444.810729980469	1116.619995117188	634.8009643554689	426.9775695800784	1066.606323242188	343.9518127441407	409.133514404297	1094.187866210938	270.3057556152344	407.0409851074221	1049.399536132812	286.0799255371094	392.5739135742189	1004.533508300781	73.15751647949224	278.1426696777345	1215.545776367188	46.84064865112312	286.6702880859377	1162.91552734375	38.72635269165046	388.1032409667971	1276.405883789062	1345.968383789062	270.5329895019534	1289.709228515625	1202.456665039062	271.7362060546877	1179.443115234375	1409.732299804688	96.35365295410178	1155.91552734375	1258.295166015625	-7.358434200286653	1136.7841796875	1198.151000976562	-26.74213027954081	1185.073608398438	1199.094970703125	-10.14001846313455	1157.285278320312	997.5522460937501	-65.31601715087869	1119.212890625	930.2846069335939	-48.15301132202128	1163.516967773438	936.4893188476564	-69.73387908935526	1184.587036132812	834.9841918945314	-80.5656280517576	1232.938598632812	832.2510986328126	-17.78578186035134	1188.226318359375	1406.311401367188	438.5193176269534	1180.22265625	1262.74072265625	545.1174316406252	1209.709350585938	1204.266967773438	553.909118652344	1160.681396484375	1204.82861328125	569.4373168945315	1242.303833007812	992.6406860351564	602.2167968750002	1315.355224609375	963.9348144531251	617.2618408203127	1275.360229492188	939.8497924804689	599.4370117187502	1341.967895507812	877.5889892578126	600.0535278320315	1378.411010742188	884.5092773437501	527.6956787109377	
303	1.51	1358.78173828125	1577.256225585938	276.5879516601565	1314.7490234375	1613.803955078125	341.2497863769534	1320.657348632812	1607.228515625	202.8897857666018	1114.23876953125	1445.732055664062	269.8857727050784	1052.701416015625	1274.861083984375	266.6896362304689	1045.933959960938	1234.703735351562	245.3966674804689	1041.189697265625	1226.865356445312	294.9945373535158	1051.746826171875	1170.250610351562	261.2265930175783	1075.24169921875	1104.249389648438	262.6323547363283	1039.560424804688	1070.273681640625	243.9907073974611	1038.09619140625	1067.712524414062	294.209197998047	1035.20458984375	1007.819641113281	264.9181518554689	1056.01904296875	957.3637695312501	236.1214141845705	1053.535278320312	954.5426025390626	287.4134216308595	1041.854614257812	896.2565307617189	258.3916320800783	1263.187866210938	686.7268676757814	61.6164474487307	1242.111450195312	612.7986450195314	81.16474151611351	1287.935668945312	631.7646484375001	71.6225967407229	1299.372802734375	369.4893188476563	73.20976257324243	1243.4296875	317.1162719726563	94.97680664062523	1292.079711914062	308.8690490722657	84.40257263183618	1203.755615234375	130.231918334961	187.0464630126955	1414.0087890625	70.79179382324227	173.9602661132815	1360.727416992188	50.15501785278329	82.83142852783229	1114.552001953125	694.1951293945314	438.1845397949221	1166.517700195312	635.4381103515626	444.7466735839846	1119.979370117188	634.7507324218751	426.8412780761721	1068.156372070312	344.1069641113282	408.801727294922	1095.321899414062	270.2980041503907	406.7505187988284	1050.637329101562	286.3103332519532	392.2609863281252	1004.806213378906	73.41470336914068	277.7308959960939	1215.581665039062	46.71178054809577	286.5293273925784	1162.963012695312	38.75793457031257	388.0058593750002	1282.619506835938	1345.157836914062	270.2329101562502	1295.718627929688	1201.63037109375	271.7034912109377	1185.741577148438	1408.877807617188	95.94566345214865	1161.338500976562	1257.443969726562	-7.65945482254007	1141.883666992188	1197.376831054688	-26.92472076415995	1190.256713867188	1198.124389648438	-10.52525711059548	1161.07421875	996.7866210937501	-65.48102569580057	1122.567749023438	929.7948608398439	-48.16641998290995	1166.79931640625	935.6522827148439	-69.98207855224588	1186.989990234375	833.9809570312501	-80.94389343261697	1235.669921875	830.8269653320314	-18.4818248748777	1194.383911132812	1405.870849609375	438.0826416015627	1186.71533203125	1262.591918945312	544.9862060546877	1216.475830078125	1204.292358398438	553.9421997070315	1167.451416015625	1204.660888671875	569.4263916015627	1250.836181640625	993.0502319335939	602.354187011719	1324.277465820312	965.1708374023439	616.9589843750002	1284.47509765625	940.6730346679689	599.3463134765627	1351.770263671875	879.1335449218751	599.4800415039065	1387.985229492188	886.7382812500001	527.0454711914065	
